<svg xmlns="http://www.w3.org/2000/svg" width="99.969" height="88.969" viewBox="0 0 99.969 88.969">
  <metadata><?xpacket begin="﻿" id="W5M0MpCehiHzreSzNTczkc9d"?>
<x:xmpmeta xmlns:x="adobe:ns:meta/" x:xmptk="Adobe XMP Core 5.6-c142 79.160924, 2017/07/13-01:06:39        ">
   <rdf:RDF xmlns:rdf="http://www.w3.org/1999/02/22-rdf-syntax-ns#">
      <rdf:Description rdf:about=""/>
   </rdf:RDF>
</x:xmpmeta>
                                                                                                    
                                                                                                    
                                                                                                    
                                                                                                    
                                                                                                    
                                                                                                    
                                                                                                    
                                                                                                    
                                                                                                    
                                                                                                    
                                                                                                    
                                                                                                    
                                                                                                    
                                                                                                    
                                                                                                    
                                                                                                    
                                                                                                    
                                                                                                    
                                                                                                    
                                                                                                    
                           
<?xpacket end="w"?></metadata>
<defs>
    <style>
      .cls-1 {
        fill: #efefef;
        fill-rule: evenodd;
      }
    </style>
  </defs>
  <path class="cls-1" d="M453.191,877.943a8.078,8.078,0,1,0,10.988,2.987A8.026,8.026,0,0,0,453.191,877.943Zm34.731-20.021a8.077,8.077,0,1,0,10.988,2.986A8.027,8.027,0,0,0,487.922,857.922Zm-40.711,8.318-0.139-.482-0.169-7.5,25.873-14.915a7.957,7.957,0,0,0,4-7.1L476.008,804l-7.986.125-0.034.02,0.226,9.2,0.519,23.008-24.381,14.055-1-.684-17.341-12.053-7.345-5.092-7.306-5.108-11.358,6.547,4.042,6.99,6.946-4,27.847,19.328,0.268,11.274a7.822,7.822,0,0,0,1.072,3.855,8.086,8.086,0,0,0,10.99,2.99l41.677-24.025L488.8,843.43l-40.218,23.184A1.022,1.022,0,0,1,447.211,866.24Zm7.58,8.7-2.246-3.884,35.008-20.182,2.246,3.884Zm11.948-69.032,2.247,3.886-46.678,26.909-2.247-3.886Zm2.247,3.886,2.245,3.882-46.678,26.909-2.245-3.882Z" transform="translate(-400 -804)"/>
</svg>
