<svg 
 xmlns="http://www.w3.org/2000/svg"
 xmlns:xlink="http://www.w3.org/1999/xlink"
 width="100px" height="89px">
<path fill-rule="evenodd"  fill="rgb(190, 190, 190)"
 d="M96.008,67.907 C92.189,70.108 87.275,68.741 85.052,64.897 C82.830,61.055 84.103,56.124 87.922,53.922 C91.741,51.720 96.688,53.066 98.910,56.908 C101.133,60.752 99.827,65.705 96.008,67.907 ZM89.799,50.761 L54.791,70.943 L53.672,69.008 L51.171,70.449 C47.350,72.652 42.403,71.303 40.181,67.459 C39.473,66.235 39.118,64.903 39.109,63.604 L38.841,52.330 L10.994,33.002 L4.048,37.006 L0.006,30.016 L11.364,23.469 L18.670,28.577 L20.758,30.025 L20.061,28.820 L66.739,1.911 L68.089,4.245 L67.988,0.147 L68.022,0.127 L76.008,0.002 L76.772,32.238 C76.845,35.086 75.381,37.842 72.776,39.343 L46.903,54.258 L47.072,61.758 L47.211,62.240 C47.495,62.732 48.134,62.874 48.585,62.614 L88.803,39.430 L92.848,46.424 L88.680,48.826 L89.799,50.761 ZM23.573,31.977 L23.573,31.977 L68.139,6.286 L68.139,6.286 L23.573,31.977 ZM68.733,32.351 L68.260,11.392 L27.647,34.804 L43.356,45.722 L44.352,46.406 L68.733,32.351 ZM53.191,73.943 C57.012,71.741 61.957,73.087 64.179,76.930 C66.402,80.774 65.098,85.725 61.278,87.928 C57.457,90.130 52.544,88.763 50.321,84.918 C48.099,81.076 49.371,76.146 53.191,73.943 Z"/>
</svg>