<svg 
 xmlns="http://www.w3.org/2000/svg"
 xmlns:xlink="http://www.w3.org/1999/xlink"
 width="18px" height="18px">
<path fill-rule="evenodd"  fill="rgb(255, 255, 255)"
 d="M14.553,8.971 C14.250,9.529 13.660,9.898 12.990,9.898 L6.339,9.898 L5.535,11.365 L5.508,11.474 C5.508,11.601 5.616,11.699 5.732,11.699 L16.071,11.699 L16.071,13.500 L15.000,13.500 L15.000,13.998 L6.000,13.998 L6.000,13.500 L5.357,13.500 C4.374,13.500 3.571,12.689 3.571,11.699 C3.571,11.384 3.651,11.087 3.794,10.836 L5.000,8.629 L1.785,1.796 L-0.001,1.796 L-0.001,-0.003 L2.919,-0.003 L3.758,1.796 L4.000,2.308 L4.000,1.998 L16.000,1.998 L16.000,2.599 L16.437,1.796 L16.446,1.796 L18.000,2.661 L14.553,8.971 ZM6.607,7.855 L6.722,8.098 L12.990,8.098 L15.236,3.998 L4.795,3.998 L6.607,7.855 ZM5.357,14.400 C6.339,14.400 7.142,15.210 7.142,16.200 C7.142,17.190 6.339,18.000 5.357,18.000 C4.374,18.000 3.580,17.190 3.580,16.200 C3.580,15.210 4.374,14.400 5.357,14.400 ZM14.285,14.400 C15.267,14.400 16.071,15.210 16.071,16.200 C16.071,17.190 15.267,18.000 14.285,18.000 C13.303,18.000 12.508,17.190 12.508,16.200 C12.508,15.210 13.303,14.400 14.285,14.400 Z"/>
</svg>