<svg 
 xmlns="http://www.w3.org/2000/svg"
 xmlns:xlink="http://www.w3.org/1999/xlink"
 width="26px" height="32px">
<path fill-rule="evenodd"  fill="rgb(255, 255, 255)"
 d="M25.770,15.235 C25.763,15.282 25.736,15.423 25.682,15.665 C25.484,16.537 25.192,17.382 24.811,18.194 C23.411,21.448 20.325,26.446 13.577,31.801 C13.407,31.936 13.203,32.002 13.000,32.002 C12.796,32.002 12.592,31.936 12.422,31.801 C5.666,26.446 2.588,21.448 1.188,18.194 C0.807,17.382 0.515,16.530 0.318,15.665 C0.264,15.423 0.237,15.282 0.230,15.235 C0.073,14.443 -0.001,13.632 -0.001,12.826 C-0.001,5.754 5.830,-0.003 12.993,-0.003 C20.156,-0.003 25.987,5.754 26.001,12.826 C26.001,13.632 25.919,14.443 25.770,15.235 ZM12.993,1.802 C6.842,1.802 1.833,6.747 1.833,12.819 C1.833,13.524 1.902,14.222 2.038,14.913 C2.038,14.933 2.044,14.946 2.044,14.960 C2.051,14.993 2.065,15.094 2.105,15.248 C2.105,15.255 2.105,15.255 2.105,15.262 C2.282,16.013 2.534,16.752 2.860,17.449 C2.867,17.456 2.867,17.470 2.874,17.476 C4.144,20.449 6.931,24.984 12.993,29.929 C19.055,24.984 21.841,20.449 23.112,17.476 C23.119,17.470 23.119,17.456 23.126,17.449 C23.459,16.745 23.710,16.013 23.880,15.262 C23.880,15.255 23.880,15.255 23.880,15.248 C23.915,15.094 23.934,14.993 23.941,14.960 C23.941,14.946 23.948,14.933 23.948,14.919 C24.084,14.235 24.152,13.531 24.152,12.819 C24.152,6.747 19.143,1.802 12.993,1.802 ZM12.993,21.112 C8.446,21.112 4.742,17.456 4.742,12.967 C4.742,8.478 8.446,4.821 12.993,4.821 C17.540,4.821 21.244,8.478 21.244,12.967 C21.244,17.456 17.540,21.112 12.993,21.112 ZM12.993,6.633 C9.459,6.633 6.577,9.478 6.577,12.967 C6.577,16.456 9.452,19.301 12.993,19.301 C16.533,19.301 19.408,16.456 19.408,12.967 C19.408,9.478 16.526,6.633 12.993,6.633 Z"/>
</svg>