<svg 
 xmlns="http://www.w3.org/2000/svg"
 xmlns:xlink="http://www.w3.org/1999/xlink"
 width="111px" height="117px">
<path fill-rule="evenodd"  fill="rgb(190, 190, 190)"
 d="M62.994,49.353 C68.384,39.503 68.590,27.354 62.546,16.886 C53.375,1.002 32.870,-4.493 16.986,4.678 C1.102,13.848 -4.388,34.351 4.783,50.235 C10.827,60.704 21.451,66.599 32.672,66.859 C21.357,80.612 17.824,99.503 23.688,116.331 L30.907,112.163 C24.931,93.472 32.650,72.656 50.338,62.444 C68.029,52.231 89.912,55.956 103.107,70.478 L110.330,66.308 C98.484,52.452 80.357,46.066 62.994,49.353 ZM12.002,46.067 C5.122,34.151 9.242,18.780 21.157,11.901 C33.071,5.022 48.443,9.140 55.323,21.056 C62.199,32.966 58.083,48.343 46.168,55.222 C34.253,62.101 18.878,57.977 12.002,46.067 Z"/>
</svg>