<svg 
 xmlns="http://www.w3.org/2000/svg"
 xmlns:xlink="http://www.w3.org/1999/xlink"
 width="20px" height="20px">
<path fill-rule="evenodd"  fill="rgb(255, 255, 255)"
 d="M13.501,12.334 C15.419,11.167 16.670,9.083 16.670,6.665 C16.670,2.997 13.668,-0.005 10.000,-0.005 C6.332,-0.005 3.330,2.997 3.330,6.665 C3.330,9.083 4.581,11.167 6.498,12.334 C3.163,13.584 0.662,16.503 -0.005,20.004 L1.662,20.004 C2.496,16.169 5.915,13.336 10.000,13.336 C14.085,13.336 17.503,16.169 18.336,20.004 L20.004,20.004 C19.338,16.420 16.837,13.501 13.501,12.334 ZM4.998,6.665 C4.998,3.913 7.248,1.663 10.000,1.663 C12.751,1.663 15.002,3.913 15.002,6.665 C15.002,9.416 12.751,11.667 10.000,11.667 C7.248,11.667 4.998,9.416 4.998,6.665 Z"/>
</svg>