<svg 
 xmlns="http://www.w3.org/2000/svg"
 xmlns:xlink="http://www.w3.org/1999/xlink"
 width="18px" height="18px">
<path fill-rule="evenodd"  fill="rgb(255, 255, 255)"
 d="M12.864,11.320 L12.051,11.320 L11.762,11.041 C12.772,9.868 13.379,8.345 13.379,6.688 C13.379,2.993 10.384,-0.002 6.689,-0.002 C2.994,-0.002 -0.001,2.993 -0.001,6.688 C-0.001,10.383 2.994,13.377 6.689,13.377 C8.346,13.377 9.869,12.771 11.043,11.761 L11.320,12.049 L11.320,12.862 L16.466,17.998 L18.000,16.465 L12.864,11.320 ZM6.689,11.320 C4.126,11.320 2.058,9.250 2.058,6.688 C2.058,4.125 4.126,2.057 6.689,2.057 C9.252,2.057 11.320,4.125 11.320,6.688 C11.320,9.250 9.252,11.320 6.689,11.320 Z"/>
</svg>