<svg 
 xmlns="http://www.w3.org/2000/svg"
 xmlns:xlink="http://www.w3.org/1999/xlink"
 width="20px" height="13px">
<path fill-rule="evenodd"  fill="rgb(255, 255, 255)"
 d="M12.038,6.780 C12.038,6.378 11.996,6.068 11.937,5.758 L6.140,5.758 L6.140,5.758 L6.140,7.869 L9.625,7.869 C9.483,8.765 8.570,10.516 6.140,10.516 C4.046,10.516 2.337,8.782 2.337,6.637 C2.337,4.493 4.046,2.759 6.140,2.759 C7.338,2.759 8.134,3.270 8.586,3.705 L10.253,2.106 C9.181,1.100 7.799,0.497 6.140,0.497 C2.747,0.497 -0.000,3.245 -0.000,6.637 C-0.000,10.030 2.747,12.778 6.140,12.778 C9.684,12.778 12.038,10.290 12.038,6.780 ZM19.301,5.758 L17.550,5.758 L17.550,4.007 L15.791,4.007 L15.791,5.758 L14.040,5.758 L14.040,7.517 L15.791,7.517 L15.791,9.268 L17.550,9.268 L17.550,7.517 L19.301,7.517 L19.301,5.758 Z"/>
</svg>