<svg 
 xmlns="http://www.w3.org/2000/svg"
 xmlns:xlink="http://www.w3.org/1999/xlink"
 width="13px" height="14px">
<path fill-rule="evenodd"  fill="rgb(255, 255, 255)"
 d="M11.409,11.077 C11.409,11.362 11.183,11.588 10.898,11.588 L1.943,11.588 C1.658,11.588 1.432,11.362 1.432,11.077 L1.432,5.649 L2.613,5.649 C2.505,5.993 2.446,6.369 2.446,6.746 C2.446,8.891 4.239,10.625 6.442,10.625 C8.653,10.625 10.446,8.891 10.446,6.746 C10.446,6.369 10.387,5.993 10.278,5.649 L11.409,5.649 L11.409,5.649 L11.409,11.077 ZM9.030,6.612 C9.030,7.995 7.874,9.117 6.442,9.117 C5.018,9.117 3.862,7.995 3.862,6.612 C3.862,5.230 5.018,4.108 6.442,4.108 C7.874,4.108 9.030,5.230 9.030,6.612 ZM11.409,3.597 C11.409,3.915 11.150,4.175 10.831,4.175 L9.374,4.175 C9.055,4.175 8.796,3.915 8.796,3.597 L8.796,2.214 C8.796,1.896 9.055,1.636 9.374,1.636 L9.374,1.636 L10.831,1.636 C11.150,1.636 11.409,1.896 11.409,2.214 L11.409,3.597 ZM12.867,1.854 C12.867,0.949 12.121,0.204 11.217,0.204 L1.650,0.204 L1.650,0.204 C0.745,0.204 -0.000,0.949 -0.000,1.854 L-0.000,11.421 C-0.000,12.325 0.745,13.071 1.650,13.071 L11.217,13.071 C12.121,13.071 12.867,12.325 12.867,11.421 L12.867,1.854 Z"/>
</svg>