<svg 
 xmlns="http://www.w3.org/2000/svg"
 xmlns:xlink="http://www.w3.org/1999/xlink"
 width="35px" height="10px">
<path fill-rule="evenodd"  fill="rgb(247, 247, 247)"
 d="M6.911,1.070 C6.785,0.811 6.585,0.597 6.337,0.438 C6.079,0.276 5.773,0.162 5.424,0.095 C5.069,0.029 4.659,-0.000 4.185,-0.005 L1.991,-0.003 C1.763,-0.000 1.540,0.181 1.487,0.406 L0.011,6.977 C-0.043,7.199 0.100,7.384 0.329,7.384 L1.379,7.384 C1.607,7.384 1.832,7.206 1.883,6.977 L2.243,5.381 C2.291,5.160 2.516,4.974 2.746,4.974 L3.047,4.974 C4.332,4.972 5.326,4.704 6.041,4.167 C6.758,3.629 7.113,2.918 7.113,2.037 C7.112,1.653 7.050,1.328 6.911,1.070 ZM4.646,3.217 C4.328,3.454 3.887,3.574 3.318,3.574 L3.061,3.574 C2.832,3.574 2.692,3.389 2.742,3.164 L3.058,1.769 C3.102,1.545 3.332,1.359 3.558,1.361 L3.903,1.359 C4.304,1.359 4.611,1.430 4.815,1.568 C5.019,1.703 5.120,1.920 5.119,2.207 C5.125,2.644 4.962,2.979 4.646,3.217 ZM19.084,2.358 L14.900,9.594 C14.765,9.820 14.468,10.002 14.241,10.002 L13.153,10.003 C12.928,10.003 12.854,9.820 12.992,9.594 L13.921,7.938 C13.921,7.938 13.996,7.841 13.930,7.302 C13.787,6.324 13.072,2.167 13.072,2.167 C13.021,1.942 13.160,1.758 13.386,1.758 L14.328,1.756 C14.616,1.756 14.848,1.950 14.900,2.177 L15.368,5.060 L15.543,5.062 C15.688,4.797 17.193,2.159 17.193,2.159 C17.336,1.936 17.627,1.749 17.853,1.749 C17.853,1.749 18.864,1.752 19.113,1.749 C19.487,1.740 19.084,2.358 19.084,2.358 ZM25.983,1.094 C25.852,0.834 25.655,0.624 25.406,0.460 C25.149,0.297 24.847,0.182 24.493,0.116 C24.144,0.053 23.730,0.018 23.258,0.018 L21.061,0.020 C20.832,0.024 20.613,0.205 20.560,0.428 L19.083,7.002 C19.029,7.225 19.176,7.409 19.400,7.409 L20.451,7.408 C20.675,7.409 20.903,7.226 20.957,7.001 L21.312,5.405 C21.364,5.182 21.590,4.996 21.817,4.997 L22.117,4.997 C23.404,4.997 24.401,4.726 25.117,4.191 C25.827,3.649 26.186,2.940 26.186,2.059 C26.183,1.674 26.118,1.350 25.983,1.094 ZM23.718,3.243 C23.402,3.477 22.961,3.597 22.394,3.597 L22.132,3.597 C21.907,3.598 21.760,3.411 21.811,3.188 L22.129,1.795 C22.176,1.571 22.404,1.384 22.630,1.387 L22.971,1.384 C23.375,1.387 23.678,1.455 23.885,1.592 C24.091,1.730 24.188,1.946 24.190,2.232 C24.192,2.668 24.034,3.005 23.718,3.243 ZM11.975,2.009 C11.579,1.781 10.953,1.667 10.098,1.667 C9.675,1.667 9.254,1.701 8.827,1.768 C8.513,1.817 8.482,1.827 8.288,1.869 C7.890,1.959 7.827,2.365 7.827,2.365 L7.698,2.907 C7.626,3.252 7.820,3.238 7.901,3.209 C8.075,3.156 8.173,3.101 8.529,3.020 C8.870,2.941 9.228,2.881 9.513,2.885 C9.933,2.885 10.254,2.931 10.469,3.023 C10.679,3.116 10.785,3.278 10.785,3.511 L10.766,3.663 L10.615,3.758 C10.020,3.796 9.588,3.853 9.066,3.930 C8.555,4.003 8.107,4.130 7.734,4.305 C7.334,4.484 7.038,4.725 6.830,5.033 C6.630,5.342 6.529,5.717 6.529,6.156 C6.529,6.569 6.675,6.912 6.957,7.177 C7.240,7.436 7.616,7.562 8.063,7.562 C8.348,7.560 8.567,7.537 8.723,7.500 L9.232,7.320 L9.662,7.076 L10.059,6.809 L10.064,6.816 L10.025,6.990 L10.022,6.997 L10.022,6.998 C9.979,7.208 10.103,7.379 10.303,7.400 L10.307,7.404 L10.325,7.404 L11.131,7.404 L11.282,7.404 L11.296,7.398 C11.505,7.373 11.702,7.201 11.748,6.997 L12.514,3.608 L12.554,3.332 L12.572,3.073 C12.575,2.593 12.372,2.237 11.975,2.009 ZM10.282,5.819 L10.118,6.039 L9.705,6.257 C9.511,6.339 9.326,6.380 9.156,6.380 C8.897,6.380 8.694,6.340 8.557,6.262 L8.355,5.860 C8.355,5.642 8.404,5.469 8.508,5.336 L8.953,5.026 C9.144,4.960 9.376,4.905 9.646,4.867 C9.886,4.836 10.360,4.781 10.422,4.779 L10.495,4.910 C10.481,4.984 10.347,5.560 10.282,5.819 ZM31.051,2.014 C30.653,1.786 30.028,1.671 29.176,1.671 C28.752,1.671 28.330,1.705 27.905,1.774 C27.591,1.821 27.559,1.831 27.365,1.872 C26.965,1.962 26.904,2.371 26.904,2.371 L26.775,2.910 C26.703,3.255 26.894,3.239 26.982,3.213 C27.157,3.159 27.251,3.107 27.605,3.023 C27.944,2.944 28.305,2.887 28.591,2.888 C29.009,2.888 29.331,2.935 29.544,3.026 C29.757,3.121 29.860,3.284 29.860,3.514 L29.846,3.665 L29.695,3.763 C29.093,3.799 28.661,3.856 28.143,3.933 C27.634,4.006 27.185,4.132 26.812,4.308 C26.413,4.488 26.112,4.730 25.907,5.038 C25.705,5.348 25.606,5.720 25.606,6.156 C25.606,6.573 25.750,6.914 26.036,7.177 C26.322,7.437 26.692,7.566 27.141,7.566 C27.423,7.564 27.642,7.544 27.799,7.502 L28.306,7.326 L28.740,7.083 L29.133,6.812 L29.141,6.820 L29.105,6.995 L29.100,6.997 L29.103,7.001 C29.055,7.209 29.180,7.383 29.382,7.402 L29.383,7.407 L29.402,7.407 L29.402,7.407 C29.535,7.407 29.991,7.407 30.210,7.407 L30.358,7.407 L30.374,7.400 C30.582,7.374 30.778,7.203 30.821,6.996 L31.589,3.612 L31.630,3.334 L31.651,3.074 C31.653,2.596 31.452,2.241 31.051,2.014 ZM29.361,5.825 L29.192,6.046 L28.781,6.264 C28.588,6.343 28.402,6.384 28.235,6.384 C27.968,6.384 27.771,6.345 27.638,6.267 L27.433,5.866 C27.433,5.647 27.483,5.476 27.583,5.341 C27.684,5.213 27.840,5.109 28.033,5.031 C28.221,4.967 28.453,4.913 28.723,4.873 C28.963,4.843 29.435,4.785 29.497,4.785 L29.571,4.915 C29.561,4.989 29.424,5.563 29.361,5.825 ZM34.990,0.481 L34.993,0.481 L33.587,6.997 L33.536,7.075 C33.455,7.258 33.275,7.407 33.084,7.407 L32.107,7.407 L32.091,7.383 C31.904,7.354 31.782,7.203 31.827,7.002 L31.826,6.997 L31.868,6.809 L33.183,0.698 L33.231,0.486 L33.282,0.403 C33.367,0.223 33.542,0.077 33.734,0.077 L34.675,0.077 C34.901,0.074 35.039,0.255 34.990,0.481 Z"/>
</svg>