<svg 
 xmlns="http://www.w3.org/2000/svg"
 xmlns:xlink="http://www.w3.org/1999/xlink"
 width="14px" height="11px">
<path fill-rule="evenodd"  fill="rgb(255, 255, 255)"
 d="M13.571,1.549 C13.085,1.759 12.557,1.910 12.013,1.968 C12.574,1.633 13.001,1.106 13.202,0.477 C12.683,0.787 12.096,1.013 11.485,1.131 C10.990,0.603 10.287,0.276 9.508,0.276 C8.008,0.276 6.802,1.490 6.802,2.982 C6.802,3.191 6.827,3.401 6.869,3.602 C4.624,3.484 2.622,2.412 1.290,0.770 C1.055,1.173 0.921,1.633 0.921,2.136 C0.921,3.074 1.399,3.903 2.128,4.390 C1.684,4.372 1.265,4.247 0.905,4.046 C0.905,4.054 0.905,4.071 0.905,4.079 C0.905,5.395 1.834,6.484 3.074,6.735 C2.848,6.794 2.605,6.827 2.362,6.827 C2.186,6.827 2.019,6.810 1.851,6.785 C2.195,7.858 3.191,8.636 4.381,8.661 C3.451,9.391 2.287,9.818 1.022,9.818 C0.796,9.818 0.586,9.809 0.368,9.784 C1.566,10.555 2.990,10.999 4.523,10.999 C9.499,10.999 12.222,6.877 12.222,3.300 C12.222,3.183 12.222,3.066 12.214,2.948 C12.741,2.563 13.202,2.086 13.571,1.549 Z"/>
</svg>