<svg 
 xmlns="http://www.w3.org/2000/svg"
 xmlns:xlink="http://www.w3.org/1999/xlink"
 width="32px" height="10px">
<path fill-rule="evenodd"  fill="rgb(247, 247, 247)"
 d="M29.895,0.177 L27.886,0.177 C27.261,0.177 26.797,0.350 26.523,0.981 L22.661,9.857 L25.392,9.857 C25.392,9.857 25.838,8.663 25.939,8.402 C26.238,8.402 28.892,8.406 29.269,8.406 C29.347,8.744 29.587,9.857 29.587,9.857 L32.000,9.857 L29.895,0.177 ZM26.688,6.420 C26.901,5.864 27.724,3.713 27.724,3.713 C27.709,3.740 27.935,3.153 28.070,2.789 L28.245,3.624 C28.245,3.624 28.744,5.936 28.848,6.420 L26.688,6.420 ZM22.842,6.687 C22.824,8.699 21.047,9.997 18.313,9.997 C17.147,9.985 16.024,9.752 15.415,9.481 L15.781,7.314 L16.116,7.468 C16.971,7.830 17.523,7.975 18.565,7.975 C19.313,7.975 20.113,7.678 20.121,7.030 C20.125,6.606 19.786,6.304 18.772,5.828 C17.785,5.364 16.477,4.588 16.494,3.197 C16.508,1.315 18.320,0.001 20.890,0.001 C21.898,0.001 22.705,0.211 23.220,0.407 L22.869,2.506 L22.633,2.394 C22.155,2.199 21.537,2.010 20.687,2.024 C19.669,2.024 19.196,2.454 19.196,2.857 C19.190,3.310 19.747,3.609 20.657,4.058 C22.160,4.747 22.854,5.587 22.842,6.687 ZM0.000,0.278 L0.033,0.083 L4.066,0.083 C4.610,0.104 5.048,0.280 5.199,0.870 L6.076,5.150 C5.215,2.911 3.138,1.049 0.000,0.278 ZM11.761,0.175 L7.665,9.842 L4.913,9.847 L2.584,1.770 C4.258,2.858 5.684,4.584 6.187,5.786 L6.458,6.783 L9.006,0.178 L11.761,0.175 L11.761,0.175 ZM12.813,0.167 L15.415,0.167 L13.788,9.852 L11.187,9.852 L12.813,0.167 Z"/>
</svg>