<svg 
 xmlns="http://www.w3.org/2000/svg"
 xmlns:xlink="http://www.w3.org/1999/xlink"
 width="17px" height="10px">
<path fill-rule="evenodd"  fill="rgb(255, 255, 255)"
 d="M16.059,1.488 C16.059,1.488 15.941,1.152 15.213,1.245 L12.800,1.261 C12.616,1.236 12.482,1.312 12.482,1.312 C12.482,1.312 12.339,1.387 12.272,1.571 C11.878,2.585 11.376,3.456 11.376,3.456 C10.304,5.283 9.868,5.383 9.692,5.266 C9.282,5.006 9.390,4.210 9.390,3.641 C9.390,1.865 9.659,1.127 8.863,0.935 C8.603,0.877 8.410,0.834 7.732,0.826 C6.869,0.818 6.140,0.826 5.730,1.027 C5.453,1.161 5.244,1.463 5.369,1.479 C5.529,1.505 5.889,1.580 6.082,1.839 C6.082,1.839 6.291,2.183 6.324,2.937 C6.417,5.023 5.989,5.283 5.989,5.283 C5.663,5.459 5.093,5.165 4.255,3.440 C4.255,3.440 3.769,2.585 3.392,1.647 C3.326,1.471 3.191,1.379 3.191,1.379 C3.191,1.379 3.041,1.261 2.823,1.228 L0.528,1.245 C0.176,1.245 0.050,1.404 0.050,1.404 C0.050,1.404 -0.076,1.538 0.042,1.815 C1.834,6.028 3.878,8.139 3.878,8.139 C3.878,8.139 5.746,10.091 7.866,9.957 L7.866,9.957 L8.829,9.957 C9.122,9.932 9.273,9.773 9.273,9.773 C9.273,9.773 9.407,9.622 9.399,9.346 C9.382,8.055 9.985,7.862 9.985,7.862 C10.572,7.678 11.326,9.111 12.130,9.664 C12.130,9.664 12.741,10.082 13.202,9.990 L15.347,9.957 C16.477,9.948 15.941,9.010 15.941,9.010 C15.900,8.934 15.631,8.357 14.341,7.159 C13.001,5.911 13.177,6.112 14.802,3.951 C15.791,2.635 16.184,1.831 16.059,1.488 Z"/>
</svg>