<svg 
 xmlns="http://www.w3.org/2000/svg"
 xmlns:xlink="http://www.w3.org/1999/xlink"
 width="21px" height="21px">
<path fill-rule="evenodd"  fill="rgb(58, 84, 214)"
 d="M18.247,17.526 C18.247,17.981 17.885,18.343 17.430,18.343 L3.108,18.343 C2.653,18.343 2.291,17.981 2.291,17.526 L2.291,8.844 L4.180,8.844 C4.006,9.393 3.912,9.996 3.912,10.599 C3.912,14.029 6.779,16.802 10.302,16.802 C13.839,16.802 16.706,14.029 16.706,10.599 C16.706,9.996 16.613,9.393 16.438,8.844 L18.247,8.844 L18.247,8.844 L18.247,17.526 ZM14.442,10.385 C14.442,12.595 12.593,14.391 10.302,14.391 C8.025,14.391 6.176,12.595 6.176,10.385 C6.176,8.174 8.025,6.379 10.302,6.379 C12.593,6.379 14.442,8.174 14.442,10.385 ZM18.247,5.562 C18.247,6.071 17.832,6.486 17.323,6.486 L14.991,6.486 C14.482,6.486 14.067,6.071 14.067,5.562 L14.067,3.351 C14.067,2.842 14.482,2.427 14.991,2.427 L14.991,2.427 L17.323,2.427 C17.832,2.427 18.247,2.842 18.247,3.351 L18.247,5.562 ZM20.578,2.775 C20.578,1.328 19.386,0.136 17.939,0.136 L2.639,0.136 L2.639,0.136 C1.192,0.136 -0.000,1.328 -0.000,2.775 L-0.000,18.075 C-0.000,19.521 1.192,20.714 2.639,20.714 L17.939,20.714 C19.386,20.714 20.578,19.521 20.578,18.075 L20.578,2.775 Z"/>
</svg>