<svg 
 xmlns="http://www.w3.org/2000/svg"
 xmlns:xlink="http://www.w3.org/1999/xlink"
 width="22px" height="18px">
<path fill-rule="evenodd"  fill="rgb(255, 255, 255)"
 d="M21.561,2.887 C20.784,3.223 19.940,3.463 19.069,3.557 C19.967,3.021 20.650,2.177 20.971,1.172 C20.141,1.668 19.203,2.029 18.225,2.217 C17.434,1.373 16.309,0.851 15.063,0.851 C12.665,0.851 10.736,2.794 10.736,5.178 C10.736,5.513 10.776,5.848 10.843,6.169 C7.253,5.982 4.051,4.266 1.920,1.641 C1.545,2.284 1.331,3.021 1.331,3.825 C1.331,5.325 2.095,6.651 3.260,7.429 C2.550,7.402 1.880,7.201 1.304,6.879 C1.304,6.893 1.304,6.920 1.304,6.933 C1.304,9.036 2.791,10.778 4.774,11.180 C4.412,11.274 4.024,11.327 3.635,11.327 C3.354,11.327 3.086,11.301 2.818,11.260 C3.367,12.975 4.962,14.221 6.864,14.261 C5.377,15.427 3.515,16.110 1.492,16.110 C1.130,16.110 0.795,16.097 0.447,16.056 C2.363,17.289 4.640,17.999 7.092,17.999 C15.050,17.999 19.404,11.408 19.404,5.687 C19.404,5.499 19.404,5.312 19.390,5.124 C20.234,4.508 20.971,3.744 21.561,2.887 Z"/>
</svg>