<svg 
 xmlns="http://www.w3.org/2000/svg"
 xmlns:xlink="http://www.w3.org/1999/xlink"
 width="32px" height="32px">
<path fill-rule="evenodd"  fill="rgb(58, 84, 214)"
 d="M15.756,6.225 C16.319,6.225 16.778,6.683 16.778,7.248 L16.778,15.092 C17.357,15.348 17.821,15.814 18.076,16.393 L21.564,16.393 C22.129,16.393 22.586,16.852 22.586,17.416 C22.586,17.980 22.129,18.440 21.564,18.440 L18.076,18.440 C17.685,19.332 16.792,19.956 15.756,19.956 C14.357,19.956 13.217,18.818 13.217,17.416 C13.217,16.379 13.841,15.487 14.734,15.092 L14.734,7.248 C14.734,6.683 15.191,6.225 15.756,6.225 ZM15.756,17.911 C16.028,17.911 16.250,17.690 16.250,17.416 C16.250,17.143 16.028,16.920 15.756,16.920 C15.484,16.920 15.261,17.143 15.261,17.416 C15.261,17.690 15.482,17.911 15.756,17.911 ZM25.453,28.932 C22.703,30.949 19.436,32.008 16.060,32.008 C15.229,32.008 14.395,31.942 13.558,31.815 C9.313,31.161 5.590,28.912 3.078,25.481 C0.566,22.053 -0.457,17.824 0.198,13.576 C0.850,9.328 3.098,5.605 6.525,3.091 C9.953,0.578 14.178,-0.448 18.422,0.207 C22.561,0.844 26.194,3.000 28.703,6.283 L28.842,5.322 C28.921,4.762 29.438,4.375 29.997,4.456 C30.556,4.535 30.945,5.054 30.863,5.613 L30.375,9.007 C30.304,9.516 29.867,9.884 29.367,9.884 C29.339,9.884 29.313,9.881 29.285,9.878 C29.265,9.876 29.242,9.876 29.219,9.873 L25.827,9.385 C25.269,9.306 24.880,8.787 24.962,8.228 C25.041,7.668 25.558,7.280 26.117,7.361 L27.057,7.496 C24.874,4.652 21.709,2.783 18.110,2.229 C14.406,1.658 10.721,2.550 7.733,4.740 C1.523,9.295 0.175,18.059 4.728,24.274 C6.916,27.262 10.163,29.221 13.868,29.792 C17.574,30.363 21.258,29.471 24.247,27.281 C28.626,24.066 30.758,18.551 29.674,13.224 C29.577,12.744 29.833,12.274 30.261,12.085 C30.326,12.055 30.397,12.032 30.471,12.017 C31.025,11.904 31.564,12.262 31.677,12.815 C32.918,18.920 30.477,25.248 25.453,28.932 Z"/>
</svg>