<svg 
 xmlns="http://www.w3.org/2000/svg"
 xmlns:xlink="http://www.w3.org/1999/xlink"
 width="32px" height="24px">
<path fill-rule="evenodd"  fill="rgb(58, 84, 214)"
 d="M28.082,24.005 L3.918,24.005 C1.760,24.005 0.007,22.276 0.007,20.147 L0.007,3.853 C0.007,1.725 1.760,-0.006 3.918,-0.006 L28.088,-0.006 C30.247,-0.006 32.000,1.732 31.993,3.860 L31.993,20.147 C31.993,22.276 30.241,24.005 28.082,24.005 ZM30.206,20.147 L30.206,3.860 C30.206,2.703 29.253,1.763 28.082,1.763 L3.918,1.763 C2.747,1.763 1.794,2.703 1.794,3.860 L1.794,20.147 C1.794,21.302 2.747,22.242 3.918,22.242 L28.088,22.242 C29.260,22.242 30.213,21.302 30.213,20.147 L30.206,20.147 ZM28.069,20.403 C27.889,20.586 27.658,20.676 27.421,20.676 C27.202,20.676 26.977,20.599 26.805,20.435 L18.850,12.979 L16.619,14.952 C16.454,15.101 16.235,15.180 16.024,15.180 C15.812,15.180 15.600,15.108 15.428,14.958 L13.256,13.044 L5.255,20.428 C5.083,20.586 4.865,20.663 4.647,20.663 C4.408,20.663 4.170,20.565 3.991,20.383 C3.654,20.023 3.673,19.469 4.031,19.136 L11.913,11.857 L3.998,4.878 C3.628,4.552 3.594,3.996 3.925,3.631 C4.255,3.265 4.818,3.233 5.189,3.560 L13.754,11.119 C13.807,11.158 13.853,11.197 13.899,11.243 C13.899,11.249 13.906,11.256 13.912,11.262 L16.017,13.116 L26.805,3.566 C27.176,3.240 27.738,3.272 28.069,3.631 C28.400,3.996 28.367,4.552 28.004,4.878 L20.181,11.798 L28.037,19.156 C28.393,19.488 28.406,20.049 28.069,20.403 Z"/>
</svg>