<svg 
 xmlns="http://www.w3.org/2000/svg"
 xmlns:xlink="http://www.w3.org/1999/xlink"
 width="32px" height="32px">
<path fill-rule="evenodd"  fill="rgb(58, 84, 214)"
 d="M31.249,15.156 C31.195,15.162 31.147,15.169 31.093,15.169 C30.652,15.169 30.267,14.859 30.193,14.413 C29.658,11.264 28.170,8.392 25.881,6.108 C23.596,3.831 20.722,2.338 17.568,1.804 C17.067,1.717 16.734,1.251 16.817,0.750 C16.904,0.257 17.370,-0.081 17.864,0.007 C21.396,0.608 24.609,2.271 27.168,4.825 C29.727,7.378 31.392,10.589 31.992,14.114 C32.080,14.609 31.742,15.081 31.249,15.156 ZM17.614,5.811 C19.759,6.176 21.715,7.189 23.263,8.737 C24.814,10.285 25.828,12.237 26.195,14.379 C26.274,14.879 25.944,15.352 25.443,15.433 C25.389,15.439 25.341,15.446 25.287,15.446 C24.848,15.446 24.461,15.135 24.387,14.690 C24.083,12.919 23.252,11.311 21.965,10.027 C20.679,8.743 19.068,7.906 17.296,7.609 C16.795,7.528 16.471,7.047 16.559,6.554 C16.647,6.061 17.114,5.730 17.614,5.811 ZM11.551,11.831 C11.052,12.338 10.537,12.865 9.982,13.372 C10.395,14.284 10.964,15.183 11.809,16.250 C13.555,18.392 15.375,20.049 17.378,21.317 C17.574,21.439 17.804,21.555 18.046,21.675 C18.217,21.763 18.393,21.851 18.570,21.947 L20.707,19.819 C21.390,19.137 22.187,18.779 23.021,18.779 C23.861,18.779 24.652,19.142 25.307,19.825 L29.024,23.548 C29.707,24.224 30.065,25.028 30.065,25.864 C30.065,26.697 29.712,27.507 29.044,28.203 C28.750,28.508 28.454,28.797 28.164,29.076 C27.737,29.488 27.330,29.872 26.980,30.298 C26.972,30.312 26.957,30.318 26.952,30.332 C25.924,31.446 24.609,32.006 23.047,32.006 C22.913,32.006 22.762,32.000 22.623,31.995 C20.300,31.844 18.223,30.975 16.667,30.239 C12.594,28.271 9.028,25.480 6.064,21.947 C3.622,19.015 1.984,16.278 0.889,13.325 C0.442,12.122 -0.140,10.285 0.022,8.311 C0.130,7.089 0.625,6.034 1.491,5.169 L3.792,2.851 C3.799,2.845 3.799,2.845 3.804,2.838 C4.482,2.189 5.280,1.845 6.106,1.845 C6.931,1.845 7.715,2.189 8.372,2.838 C8.812,3.243 9.238,3.675 9.645,4.094 C9.847,4.310 10.063,4.528 10.274,4.737 L12.121,6.581 C13.541,8.001 13.541,9.838 12.121,11.257 C11.932,11.446 11.742,11.642 11.551,11.831 ZM10.834,7.872 L8.987,6.027 C8.771,5.804 8.555,5.588 8.345,5.372 C7.933,4.946 7.540,4.547 7.127,4.163 C7.120,4.155 7.113,4.148 7.107,4.143 C6.890,3.925 6.545,3.670 6.118,3.670 C5.774,3.670 5.422,3.839 5.091,4.148 L2.783,6.453 C2.222,7.013 1.918,7.669 1.849,8.460 C1.748,9.696 1.979,11.007 2.608,12.689 C3.630,15.446 5.172,18.014 7.479,20.791 C10.274,24.122 13.636,26.751 17.466,28.601 C18.866,29.272 20.733,30.054 22.742,30.184 C22.845,30.190 22.953,30.190 23.055,30.190 C24.111,30.190 24.914,29.846 25.600,29.116 C26.018,28.621 26.465,28.183 26.903,27.763 C27.196,27.481 27.467,27.223 27.729,26.939 C28.420,26.222 28.420,25.515 27.723,24.824 L23.995,21.101 C23.989,21.095 23.989,21.095 23.980,21.089 C23.773,20.859 23.426,20.595 23.007,20.595 C22.580,20.595 22.216,20.873 21.985,21.101 L19.672,23.412 C19.558,23.528 19.205,23.877 18.644,23.877 C18.419,23.877 18.203,23.824 17.972,23.710 C17.947,23.696 17.918,23.676 17.893,23.661 C17.696,23.542 17.466,23.426 17.222,23.304 C16.952,23.170 16.667,23.028 16.390,22.851 C14.218,21.482 12.249,19.691 10.382,17.392 L10.375,17.386 C9.346,16.081 8.670,14.987 8.189,13.825 C8.183,13.805 8.176,13.785 8.169,13.764 C8.048,13.379 7.938,12.812 8.520,12.230 C8.527,12.216 8.542,12.210 8.555,12.196 C9.144,11.669 9.684,11.129 10.254,10.548 C10.449,10.359 10.638,10.162 10.834,9.966 C11.551,9.250 11.551,8.588 10.834,7.872 Z"/>
</svg>