<svg 
 xmlns="http://www.w3.org/2000/svg"
 xmlns:xlink="http://www.w3.org/1999/xlink"
 width="20px" height="20px">
<path fill-rule="evenodd"  fill="rgb(58, 84, 214)"
 d="M18.412,15.267 C19.451,13.669 20.000,11.816 20.000,9.907 C20.000,4.444 15.514,-0.001 10.000,-0.001 C4.486,-0.001 -0.000,4.444 -0.000,9.907 C-0.000,11.801 0.541,13.643 1.566,15.233 C2.563,16.780 3.969,18.021 5.632,18.822 L6.353,17.352 C3.452,15.954 1.649,13.101 1.649,9.907 C1.649,5.345 5.395,1.633 10.000,1.633 C14.604,1.633 18.350,5.345 18.350,9.907 C18.350,12.622 16.981,15.160 14.774,16.693 L11.862,13.794 L11.862,19.999 L18.095,19.999 L15.953,17.867 C16.919,17.158 17.753,16.279 18.412,15.267 Z"/>
</svg>