<svg 
 xmlns="http://www.w3.org/2000/svg"
 xmlns:xlink="http://www.w3.org/1999/xlink"
 width="12px" height="12px">
<path fill-rule="evenodd"  fill="rgb(255, 255, 255)"
 d="M5.625,9.977 C5.444,10.158 5.154,10.158 4.973,9.977 L4.233,9.237 C4.052,9.056 4.052,8.766 4.233,8.585 L6.459,6.360 L4.233,4.134 C4.052,3.953 4.052,3.664 4.233,3.483 L4.973,2.742 C5.154,2.561 5.444,2.561 5.625,2.742 L8.916,6.034 C9.097,6.214 9.097,6.505 8.916,6.686 L5.625,9.977 ZM11.561,6.360 C11.561,3.287 9.068,0.793 5.995,0.793 C2.922,0.793 0.428,3.287 0.428,6.360 C0.428,9.433 2.922,11.926 5.995,11.926 C9.068,11.926 11.561,9.433 11.561,6.360 Z"/>
</svg>