<svg 
 xmlns="http://www.w3.org/2000/svg"
 xmlns:xlink="http://www.w3.org/1999/xlink"
 width="50px" height="50px">
<path fill-rule="evenodd"  fill="rgb(68, 93, 216)"
 d="M25.000,49.998 C11.216,49.998 0.003,38.897 0.003,25.251 C0.003,11.606 11.216,0.504 25.000,0.504 C29.066,0.504 33.102,1.493 36.674,3.363 C37.211,3.645 37.417,4.305 37.132,4.836 C36.848,5.368 36.181,5.572 35.643,5.291 C32.389,3.586 28.709,2.685 25.000,2.685 C12.431,2.685 2.205,12.808 2.205,25.251 C2.205,37.695 12.431,47.819 25.000,47.819 C37.569,47.819 47.795,37.695 47.795,25.251 C47.795,24.649 48.287,24.162 48.895,24.162 C49.504,24.162 49.997,24.649 49.997,25.251 C49.997,38.897 38.784,49.998 25.000,49.998 ZM35.694,33.925 C35.085,33.925 34.593,33.437 34.593,32.834 L34.593,30.742 L34.593,22.025 C34.593,21.422 35.085,20.934 35.694,20.934 C36.302,20.934 36.795,21.422 36.795,22.025 L36.795,27.281 C37.302,27.040 37.869,26.905 38.468,26.905 L38.525,26.905 C40.661,26.905 42.399,28.626 42.399,30.742 L42.399,32.834 C42.399,33.437 41.907,33.925 41.299,33.925 C40.691,33.925 40.197,33.437 40.197,32.834 L40.197,30.742 C40.197,29.829 39.446,29.086 38.525,29.086 L38.468,29.086 C37.545,29.086 36.795,29.829 36.795,30.742 L36.795,32.834 C36.795,33.437 36.302,33.925 35.694,33.925 ZM27.139,17.021 C27.421,16.642 27.917,16.486 28.369,16.633 C28.820,16.780 29.126,17.198 29.126,17.669 L29.126,26.935 L31.760,26.935 C32.369,26.935 32.862,27.424 32.862,28.026 C32.862,28.628 32.369,29.116 31.760,29.116 L29.126,29.116 L29.126,32.834 C29.126,33.437 28.633,33.925 28.024,33.925 C27.416,33.925 26.923,33.437 26.923,32.834 L26.923,29.116 L20.302,29.116 C19.887,29.116 19.507,28.884 19.319,28.517 C19.132,28.150 19.170,27.709 19.416,27.378 L27.139,17.021 ZM26.923,26.935 L26.923,20.981 L22.484,26.935 L26.923,26.935 ZM19.517,32.218 C19.517,32.820 19.024,33.308 18.416,33.308 L8.701,33.308 C8.257,33.308 7.856,33.044 7.685,32.638 C7.514,32.233 7.605,31.764 7.917,31.452 L15.573,23.776 C16.600,22.746 16.573,21.427 16.206,20.536 C15.755,19.442 14.788,18.778 13.620,18.760 L13.558,18.759 C11.487,18.759 9.802,20.427 9.802,22.478 C9.802,23.080 9.309,23.568 8.701,23.568 C8.093,23.568 7.600,23.080 7.600,22.478 C7.600,19.225 10.273,16.578 13.558,16.578 C13.591,16.578 13.623,16.578 13.656,16.579 C15.703,16.612 17.461,17.812 18.244,19.711 C19.053,21.670 18.630,23.815 17.140,25.308 L11.336,31.128 L18.416,31.128 C19.024,31.128 19.517,31.615 19.517,32.218 ZM41.877,10.165 L33.811,10.337 C33.803,10.337 33.795,10.337 33.787,10.337 C33.190,10.337 32.700,9.865 32.686,9.270 C32.674,8.669 33.156,8.170 33.764,8.157 L40.730,8.009 L40.580,1.113 C40.566,0.511 41.049,0.012 41.657,-0.001 C42.259,-0.017 42.768,0.464 42.782,1.066 L42.955,9.053 C42.961,9.341 42.851,9.620 42.649,9.829 C42.448,10.038 42.170,10.159 41.877,10.165 Z"/>
</svg>