<svg 
 xmlns="http://www.w3.org/2000/svg"
 xmlns:xlink="http://www.w3.org/1999/xlink"
 width="41px" height="50px">
<path fill-rule="evenodd"  fill="rgb(68, 93, 216)"
 d="M40.636,14.918 L24.510,28.079 C24.332,28.225 24.113,28.299 23.892,28.299 C23.748,28.299 23.603,28.267 23.469,28.203 C23.128,28.039 22.910,27.691 22.910,27.310 L22.910,19.182 L6.953,19.182 C6.411,19.182 5.972,18.738 5.972,18.192 L5.972,10.104 C5.972,9.557 6.411,9.115 6.953,9.115 L16.572,9.115 C17.115,9.115 17.554,9.557 17.554,10.104 C17.554,10.652 17.115,11.095 16.572,11.095 L7.935,11.095 L7.935,17.201 L23.892,17.201 C24.434,17.201 24.874,17.644 24.874,18.192 L24.874,25.234 L38.457,14.148 L24.874,3.062 L24.874,10.105 C24.874,10.652 24.434,11.095 23.892,11.095 C23.349,11.095 22.910,10.652 22.910,10.105 L22.910,0.987 C22.910,0.605 23.128,0.257 23.469,0.093 C23.810,-0.071 24.215,-0.023 24.510,0.217 L40.635,13.378 C40.865,13.566 40.999,13.849 40.999,14.148 C40.999,14.447 40.865,14.730 40.636,14.918 ZM17.531,21.795 C17.873,21.960 18.090,22.307 18.090,22.689 L18.090,31.807 C18.090,32.354 17.651,32.797 17.108,32.797 C16.566,32.797 16.126,32.354 16.126,31.807 L16.126,24.764 L2.543,35.850 L16.126,46.936 L16.126,39.894 C16.126,39.346 16.566,38.903 17.108,38.903 L33.065,38.903 L33.065,32.797 L22.071,32.797 C21.529,32.797 21.089,32.354 21.089,31.807 C21.089,31.260 21.529,30.816 22.071,30.816 L34.047,30.816 C34.589,30.816 35.029,31.260 35.029,31.807 L35.029,39.894 C35.029,40.440 34.589,40.884 34.047,40.884 L18.090,40.884 L18.090,49.012 C18.090,49.393 17.872,49.741 17.531,49.906 C17.396,49.970 17.252,50.001 17.108,50.001 C16.887,50.001 16.669,49.927 16.490,49.782 L0.365,36.620 C0.135,36.432 0.001,36.149 0.001,35.850 C0.001,35.552 0.135,35.268 0.365,35.081 L16.490,21.919 C16.785,21.679 17.190,21.631 17.531,21.795 Z"/>
</svg>