<svg 
 xmlns="http://www.w3.org/2000/svg"
 xmlns:xlink="http://www.w3.org/1999/xlink"
 width="12px" height="12px">
<path fill-rule="evenodd"  fill="rgb(58, 84, 214)"
 d="M5.625,9.977 C5.444,10.158 5.154,10.158 4.973,9.977 L4.234,9.238 C4.052,9.056 4.052,8.766 4.234,8.586 L6.459,6.360 L4.234,4.135 C4.052,3.954 4.052,3.664 4.234,3.483 L4.973,2.743 C5.154,2.562 5.444,2.562 5.625,2.743 L8.916,6.034 C9.097,6.215 9.097,6.505 8.916,6.686 L5.625,9.977 ZM11.561,6.360 C11.561,3.287 9.068,0.794 5.995,0.794 C2.922,0.794 0.428,3.287 0.428,6.360 C0.428,9.433 2.922,11.927 5.995,11.927 C9.068,11.927 11.561,9.433 11.561,6.360 Z"/>
</svg>