<svg 
 xmlns="http://www.w3.org/2000/svg"
 xmlns:xlink="http://www.w3.org/1999/xlink"
 width="50px" height="47px">
<path fill-rule="evenodd"  fill="rgb(68, 93, 216)"
 d="M39.478,21.576 C39.317,21.670 39.141,21.715 38.967,21.715 C38.612,21.715 38.267,21.528 38.077,21.195 L34.634,15.154 L33.944,17.763 C33.822,18.228 33.406,18.534 32.954,18.534 C32.865,18.534 32.777,18.523 32.687,18.498 C32.140,18.350 31.815,17.780 31.962,17.225 L33.292,12.192 C33.302,12.159 33.312,12.126 33.324,12.094 C33.326,12.088 33.329,12.082 33.332,12.076 C33.341,12.050 33.352,12.025 33.364,12.001 C33.366,11.996 33.369,11.991 33.372,11.986 C33.384,11.961 33.398,11.936 33.412,11.912 C33.414,11.909 33.417,11.906 33.418,11.903 C33.434,11.878 33.451,11.852 33.470,11.827 C33.470,11.827 33.471,11.826 33.473,11.824 C33.492,11.799 33.512,11.774 33.535,11.750 C33.536,11.749 33.538,11.748 33.539,11.746 C33.560,11.723 33.582,11.701 33.607,11.680 C33.611,11.675 33.616,11.672 33.621,11.668 C33.641,11.650 33.663,11.632 33.685,11.616 C33.713,11.597 33.741,11.577 33.771,11.560 C33.801,11.543 33.832,11.527 33.862,11.513 C33.888,11.501 33.913,11.491 33.938,11.482 C33.944,11.480 33.951,11.477 33.956,11.475 C33.987,11.465 34.019,11.456 34.051,11.448 C34.084,11.440 34.116,11.434 34.149,11.430 C34.149,11.429 34.150,11.429 34.150,11.429 C34.182,11.425 34.213,11.423 34.243,11.422 C34.247,11.422 34.249,11.421 34.251,11.421 C34.279,11.420 34.309,11.421 34.337,11.423 C34.342,11.423 34.346,11.423 34.351,11.423 C34.379,11.425 34.405,11.428 34.433,11.433 C34.439,11.433 34.445,11.433 34.451,11.434 C34.485,11.440 34.517,11.448 34.550,11.456 L39.518,12.805 C40.065,12.954 40.391,13.524 40.244,14.078 C40.097,14.633 39.534,14.962 38.987,14.813 L36.411,14.114 L39.855,20.156 C40.137,20.653 39.970,21.289 39.478,21.576 ZM33.040,30.118 L23.249,12.936 L39.320,3.536 C39.810,3.250 40.438,3.420 40.721,3.917 C41.004,4.415 40.836,5.050 40.346,5.337 L26.053,13.698 L33.792,27.278 L47.196,19.437 L42.538,11.265 C42.255,10.767 42.423,10.131 42.915,9.844 C43.405,9.556 44.033,9.727 44.316,10.224 L50.000,20.199 L33.040,30.118 ZM27.042,29.424 C29.377,29.424 31.498,30.364 33.058,31.890 L48.076,23.038 L49.109,24.835 L34.373,33.522 C35.222,34.880 35.717,36.487 35.717,38.211 C35.717,43.057 31.826,46.999 27.042,46.999 C22.260,46.999 18.369,43.057 18.369,38.211 C18.369,34.970 20.112,32.133 22.697,30.610 L7.579,3.572 C6.766,2.144 4.949,1.651 3.533,2.479 C2.118,3.307 1.631,5.148 2.448,6.582 L0.671,7.622 C-0.712,5.195 0.112,2.080 2.507,0.679 C4.903,-0.723 7.977,0.111 9.360,2.538 L24.593,29.783 C25.371,29.550 26.192,29.424 27.042,29.424 ZM20.421,38.211 C20.421,41.910 23.392,44.919 27.042,44.919 C30.693,44.919 33.664,41.910 33.664,38.211 C33.664,34.512 30.693,31.503 27.042,31.503 C23.392,31.503 20.421,34.512 20.421,38.211 ZM30.586,38.211 C30.586,40.191 28.997,41.801 27.042,41.801 C26.476,41.801 26.016,41.335 26.016,40.760 C26.016,40.186 26.476,39.722 27.042,39.722 C27.864,39.722 28.533,39.044 28.533,38.211 C28.533,37.378 27.864,36.701 27.042,36.701 C26.221,36.701 25.552,37.378 25.552,38.211 C25.552,38.785 25.093,39.251 24.526,39.251 C23.959,39.251 23.500,38.785 23.500,38.211 C23.500,36.232 25.089,34.623 27.042,34.623 C28.997,34.623 30.586,36.232 30.586,38.211 Z"/>
</svg>