<svg 
 xmlns="http://www.w3.org/2000/svg"
 xmlns:xlink="http://www.w3.org/1999/xlink"
 width="50px" height="37px">
<path fill-rule="evenodd"  fill="rgb(68, 93, 216)"
 d="M44.493,27.341 L41.482,27.341 C40.892,27.341 40.414,26.855 40.414,26.256 C40.414,25.657 40.892,25.171 41.482,25.171 L44.493,25.171 C46.352,25.171 47.864,23.635 47.864,21.748 L47.864,18.550 L38.959,18.550 L38.959,31.410 C38.959,34.493 36.490,37.002 33.453,37.002 L5.506,37.002 C2.470,37.002 -0.000,34.493 -0.000,31.410 L-0.000,15.250 C-0.000,12.166 2.470,9.656 5.506,9.656 L33.120,9.656 L33.453,9.656 L47.864,9.656 L47.864,5.588 C47.864,3.701 46.352,2.165 44.493,2.165 L16.546,2.165 C14.688,2.165 13.177,3.701 13.177,5.588 L13.177,6.983 C13.177,7.582 12.698,8.068 12.108,8.068 C11.519,8.068 11.040,7.582 11.040,6.983 L11.040,5.588 C11.040,2.505 13.510,-0.005 16.546,-0.005 L44.493,-0.005 C47.530,-0.005 50.000,2.505 50.000,5.589 L50.000,21.748 C50.000,24.832 47.530,27.341 44.493,27.341 ZM36.823,15.250 C36.823,13.362 35.312,11.826 33.453,11.826 L33.120,11.826 L5.506,11.826 C3.648,11.826 2.136,13.362 2.136,15.250 L2.136,31.410 C2.136,33.297 3.648,34.832 5.506,34.832 L33.453,34.832 C35.312,34.832 36.823,33.297 36.823,31.410 L36.823,15.250 ZM37.804,11.826 C38.275,12.444 38.622,13.164 38.807,13.947 L40.894,11.826 L37.804,11.826 ZM43.916,11.826 L39.636,16.175 C39.552,16.261 39.456,16.329 39.354,16.379 L41.724,16.379 C41.765,16.312 41.814,16.250 41.871,16.192 L46.168,11.826 L43.916,11.826 ZM47.530,13.512 L44.708,16.379 L47.530,16.379 L47.530,13.512 ZM33.032,32.454 L20.537,32.454 C19.947,32.454 19.468,31.969 19.468,31.368 C19.468,30.769 19.947,30.284 20.537,30.284 L33.032,30.284 C33.622,30.284 34.100,30.769 34.100,31.368 C34.100,31.969 33.622,32.454 33.032,32.454 ZM33.032,27.341 L20.537,27.341 C19.947,27.341 19.468,26.855 19.468,26.256 C19.468,25.657 19.947,25.171 20.537,25.171 L33.032,25.171 C33.622,25.171 34.100,25.657 34.100,26.256 C34.100,26.855 33.622,27.341 33.032,27.341 ZM14.289,32.454 L5.542,32.454 C4.952,32.454 4.474,31.969 4.474,31.368 L4.474,23.894 C4.474,23.295 4.952,22.809 5.542,22.809 L11.183,22.809 C11.773,22.809 12.252,23.295 12.252,23.894 C12.252,24.493 11.773,24.979 11.183,24.979 L6.610,24.979 L6.610,30.284 L13.221,30.284 L13.221,26.891 C13.221,26.292 13.699,25.807 14.289,25.807 C14.879,25.807 15.357,26.292 15.357,26.891 L15.357,31.368 C15.357,31.969 14.879,32.454 14.289,32.454 Z"/>
</svg>